<mxfile host="app.diagrams.net" agent="Mozilla/5.0 (Windows NT 10.0; Win64; x64) AppleWebKit/537.36 (KHTML, like Gecko) Chrome/140.0.0.0 Safari/537.36 Edg/140.0.0.0" version="28.2.3">
  <diagram id="contextDiagram" name="Level 1 - Context Diagram">
    <mxGraphModel dx="1571" dy="876" grid="1" gridSize="10" guides="1" tooltips="1" connect="1" arrows="1" fold="1" page="1" pageScale="1" pageWidth="1600" pageHeight="900" math="0" shadow="0">
      <root>
        <mxCell id="0" />
        <mxCell id="1" parent="0" />
        <object placeholders="1" c4Name="" c4Type="" c4Description="Tác nhân thực hiện Tìm kiếm sách, mượn sách online, gia hạn, xem lịch sử mượn." label="&lt;font style=&quot;font-size: 16px&quot;&gt;&lt;b&gt;%c4Name%&lt;/b&gt;&lt;/font&gt;&lt;div&gt;[%c4Type%]&lt;/div&gt;&lt;br&gt;&lt;div&gt;&lt;font style=&quot;font-size: 11px&quot;&gt;&lt;font color=&quot;#cccccc&quot;&gt;%c4Description%&lt;/font&gt;&lt;/div&gt;" id="XcJCPWwcjopnrucdCZFC-1">
          <mxCell style="rounded=1;whiteSpace=wrap;html=1;labelBackgroundColor=none;fillColor=light-dark(#1e4074, #69aef2);fontColor=#ffffff;align=center;arcSize=0;strokeColor=light-dark(#1e4074, #7fb9f1);metaEdit=1;resizable=1;points=[[0.25,0,0],[0.5,0,0],[0.75,0,0],[1,0.25,0],[1,0.5,0],[1,0.75,0],[0.75,1,0],[0.5,1,0],[0.25,1,0],[0,0.75,0],[0,0.5,0],[0,0.25,0]];movable=1;rotatable=1;deletable=1;editable=1;locked=0;connectable=1;spacingBottom=-43;" vertex="1" parent="1">
            <mxGeometry x="750" y="130" width="170" height="160" as="geometry" />
          </mxCell>
        </object>
        <mxCell id="XcJCPWwcjopnrucdCZFC-2" value="" style="sketch=0;pointerEvents=1;shadow=0;dashed=0;html=1;labelPosition=center;verticalLabelPosition=bottom;verticalAlign=top;outlineConnect=0;align=center;shape=mxgraph.office.users.user;" vertex="1" parent="1">
          <mxGeometry x="812" y="140" width="46" height="50" as="geometry" />
        </mxCell>
        <mxCell id="XcJCPWwcjopnrucdCZFC-3" value="&lt;font style=&quot;font-size: 16px; color: light-dark(rgb(255, 255, 255), rgb(237, 237, 237));&quot;&gt;Người đọc&lt;/font&gt;" style="text;html=1;align=center;verticalAlign=middle;resizable=0;points=[];autosize=1;strokeColor=none;fillColor=none;labelBackgroundColor=light-dark(#1e4074, #ededed);" vertex="1" parent="1">
          <mxGeometry x="785" y="190" width="100" height="30" as="geometry" />
        </mxCell>
        <object placeholders="1" c4Name="" c4Type="" c4Description="Quản lý kho sách, xử lý yêu cầu mượn/trả, theo dõi phí trễ hạn." label="&lt;font&gt;&lt;b&gt;%c4Name%&lt;/b&gt;&lt;/font&gt;&lt;div&gt;[%c4Type%]&lt;/div&gt;&lt;br&gt;&lt;div&gt;&lt;font&gt;&lt;font color=&quot;#cccccc&quot;&gt;%c4Description%&lt;/font&gt;&lt;/font&gt;&lt;/div&gt;" id="XcJCPWwcjopnrucdCZFC-4">
          <mxCell style="rounded=1;whiteSpace=wrap;html=1;labelBackgroundColor=none;fillColor=light-dark(#1e4074, #69aef2);fontColor=#ffffff;align=center;arcSize=0;strokeColor=#0D5091;metaEdit=1;resizable=1;points=[[0.25,0,0],[0.5,0,0],[0.75,0,0],[1,0.25,0],[1,0.5,0],[1,0.75,0],[0.75,1,0],[0.5,1,0],[0.25,1,0],[0,0.75,0],[0,0.5,0],[0,0.25,0]];movable=1;rotatable=1;deletable=1;editable=1;locked=0;connectable=1;spacingBottom=-43;fontSize=15;" vertex="1" parent="1">
            <mxGeometry x="725" y="650" width="220" height="140" as="geometry" />
          </mxCell>
        </object>
        <mxCell id="XcJCPWwcjopnrucdCZFC-5" value="" style="sketch=0;pointerEvents=1;shadow=0;dashed=0;html=1;labelPosition=center;verticalLabelPosition=bottom;verticalAlign=top;outlineConnect=0;align=center;shape=mxgraph.office.users.user;" vertex="1" parent="1">
          <mxGeometry x="817" y="670" width="46" height="50" as="geometry" />
        </mxCell>
        <mxCell id="XcJCPWwcjopnrucdCZFC-6" value="&lt;font color=&quot;#ffffff&quot;&gt;&lt;span style=&quot;font-size: 16px;&quot;&gt;Thủ thư/Admin&lt;/span&gt;&lt;/font&gt;" style="text;html=1;align=center;verticalAlign=middle;resizable=0;points=[];autosize=1;strokeColor=none;fillColor=none;labelBackgroundColor=light-dark(#1e4074, #ededed);" vertex="1" parent="1">
          <mxGeometry x="775" y="710" width="130" height="30" as="geometry" />
        </mxCell>
        <mxCell id="XcJCPWwcjopnrucdCZFC-7" value="Legend" style="shape=table;startSize=30;container=1;collapsible=0;childLayout=tableLayout;fontSize=16;align=left;verticalAlign=top;fillColor=none;strokeColor=none;fontColor=#4D4D4D;fontStyle=1;spacingLeft=6;spacing=0;resizable=0;" vertex="1" parent="1">
          <mxGeometry x="1100" y="750" width="180" height="200" as="geometry" />
        </mxCell>
        <mxCell id="XcJCPWwcjopnrucdCZFC-8" value="" style="shape=tableRow;horizontal=0;startSize=0;swimlaneHead=0;swimlaneBody=0;strokeColor=inherit;top=0;left=0;bottom=0;right=0;collapsible=0;dropTarget=0;fillColor=none;points=[[0,0.5],[1,0.5]];portConstraint=eastwest;fontSize=12;" vertex="1" parent="XcJCPWwcjopnrucdCZFC-7">
          <mxGeometry y="30" width="180" height="30" as="geometry" />
        </mxCell>
        <mxCell id="XcJCPWwcjopnrucdCZFC-9" value="Person" style="shape=partialRectangle;html=1;whiteSpace=wrap;connectable=0;strokeColor=inherit;overflow=hidden;fillColor=#1E4074;top=0;left=0;bottom=0;right=0;pointerEvents=1;fontSize=12;align=left;fontColor=#FFFFFF;gradientColor=none;spacingLeft=10;spacingRight=4;" vertex="1" parent="XcJCPWwcjopnrucdCZFC-8">
          <mxGeometry width="180" height="30" as="geometry">
            <mxRectangle width="180" height="30" as="alternateBounds" />
          </mxGeometry>
        </mxCell>
        <mxCell id="XcJCPWwcjopnrucdCZFC-10" value="" style="shape=tableRow;horizontal=0;startSize=0;swimlaneHead=0;swimlaneBody=0;strokeColor=inherit;top=0;left=0;bottom=0;right=0;collapsible=0;dropTarget=0;fillColor=none;points=[[0,0.5],[1,0.5]];portConstraint=eastwest;fontSize=12;" vertex="1" parent="XcJCPWwcjopnrucdCZFC-7">
          <mxGeometry y="60" width="180" height="30" as="geometry" />
        </mxCell>
        <mxCell id="XcJCPWwcjopnrucdCZFC-11" value="Software System" style="shape=partialRectangle;html=1;whiteSpace=wrap;connectable=0;strokeColor=inherit;overflow=hidden;fillColor=#3162AF;top=0;left=0;bottom=0;right=0;pointerEvents=1;fontSize=12;align=left;fontColor=#FFFFFF;gradientColor=none;spacingLeft=10;spacingRight=4;" vertex="1" parent="XcJCPWwcjopnrucdCZFC-10">
          <mxGeometry width="180" height="30" as="geometry">
            <mxRectangle width="180" height="30" as="alternateBounds" />
          </mxGeometry>
        </mxCell>
        <mxCell id="XcJCPWwcjopnrucdCZFC-12" value="" style="shape=tableRow;horizontal=0;startSize=0;swimlaneHead=0;swimlaneBody=0;strokeColor=inherit;top=0;left=0;bottom=0;right=0;collapsible=0;dropTarget=0;fillColor=none;points=[[0,0.5],[1,0.5]];portConstraint=eastwest;fontSize=12;" vertex="1" parent="XcJCPWwcjopnrucdCZFC-7">
          <mxGeometry y="90" width="180" height="30" as="geometry" />
        </mxCell>
        <mxCell id="XcJCPWwcjopnrucdCZFC-13" value="Container" style="shape=partialRectangle;html=1;whiteSpace=wrap;connectable=0;strokeColor=inherit;overflow=hidden;fillColor=#52a2d8;top=0;left=0;bottom=0;right=0;pointerEvents=1;fontSize=12;align=left;fontColor=#FFFFFF;gradientColor=none;spacingLeft=10;spacingRight=4;" vertex="1" parent="XcJCPWwcjopnrucdCZFC-12">
          <mxGeometry width="180" height="30" as="geometry">
            <mxRectangle width="180" height="30" as="alternateBounds" />
          </mxGeometry>
        </mxCell>
        <mxCell id="XcJCPWwcjopnrucdCZFC-14" value="" style="shape=tableRow;horizontal=0;startSize=0;swimlaneHead=0;swimlaneBody=0;strokeColor=inherit;top=0;left=0;bottom=0;right=0;collapsible=0;dropTarget=0;fillColor=none;points=[[0,0.5],[1,0.5]];portConstraint=eastwest;fontSize=12;" vertex="1" parent="XcJCPWwcjopnrucdCZFC-7">
          <mxGeometry y="120" width="180" height="30" as="geometry" />
        </mxCell>
        <mxCell id="XcJCPWwcjopnrucdCZFC-15" value="Component" style="shape=partialRectangle;html=1;whiteSpace=wrap;connectable=0;strokeColor=inherit;overflow=hidden;fillColor=#7dbef2;top=0;left=0;bottom=0;right=0;pointerEvents=1;fontSize=12;align=left;fontColor=#FFFFFF;gradientColor=none;spacingLeft=10;spacingRight=4;" vertex="1" parent="XcJCPWwcjopnrucdCZFC-14">
          <mxGeometry width="180" height="30" as="geometry">
            <mxRectangle width="180" height="30" as="alternateBounds" />
          </mxGeometry>
        </mxCell>
        <mxCell id="XcJCPWwcjopnrucdCZFC-16" value="" style="shape=tableRow;horizontal=0;startSize=0;swimlaneHead=0;swimlaneBody=0;strokeColor=inherit;top=0;left=0;bottom=0;right=0;collapsible=0;dropTarget=0;fillColor=none;points=[[0,0.5],[1,0.5]];portConstraint=eastwest;fontSize=12;" vertex="1" parent="XcJCPWwcjopnrucdCZFC-7">
          <mxGeometry y="150" width="180" height="20" as="geometry" />
        </mxCell>
        <mxCell id="XcJCPWwcjopnrucdCZFC-17" value="External Person" style="shape=partialRectangle;html=1;whiteSpace=wrap;connectable=0;strokeColor=inherit;overflow=hidden;fillColor=#6b6477;top=0;left=0;bottom=0;right=0;pointerEvents=1;fontSize=12;align=left;fontColor=#FFFFFF;gradientColor=none;spacingLeft=10;spacingRight=4;" vertex="1" parent="XcJCPWwcjopnrucdCZFC-16">
          <mxGeometry width="180" height="20" as="geometry">
            <mxRectangle width="180" height="20" as="alternateBounds" />
          </mxGeometry>
        </mxCell>
        <mxCell id="XcJCPWwcjopnrucdCZFC-18" value="" style="shape=tableRow;horizontal=0;startSize=0;swimlaneHead=0;swimlaneBody=0;strokeColor=inherit;top=0;left=0;bottom=0;right=0;collapsible=0;dropTarget=0;fillColor=none;points=[[0,0.5],[1,0.5]];portConstraint=eastwest;fontSize=12;" vertex="1" parent="XcJCPWwcjopnrucdCZFC-7">
          <mxGeometry y="170" width="180" height="30" as="geometry" />
        </mxCell>
        <mxCell id="XcJCPWwcjopnrucdCZFC-19" value="External Software System" style="shape=partialRectangle;html=1;whiteSpace=wrap;connectable=0;strokeColor=inherit;overflow=hidden;fillColor=#8b8496;top=0;left=0;bottom=0;right=0;pointerEvents=1;fontSize=12;align=left;fontColor=#FFFFFF;gradientColor=none;spacingLeft=10;spacingRight=4;" vertex="1" parent="XcJCPWwcjopnrucdCZFC-18">
          <mxGeometry width="180" height="30" as="geometry">
            <mxRectangle width="180" height="30" as="alternateBounds" />
          </mxGeometry>
        </mxCell>
        <mxCell id="XcJCPWwcjopnrucdCZFC-20" value="&lt;span&gt;&lt;font style=&quot;font-size: 20px;&quot;&gt;Thư viện online&lt;/font&gt;&lt;/span&gt;" style="whiteSpace=wrap;html=1;fillColor=light-dark(#3162af, #ededed);fontColor=light-dark(#ffffff, #ededed);" vertex="1" parent="1">
          <mxGeometry x="725" y="390" width="220" height="100" as="geometry" />
        </mxCell>
        <object placeholders="1" c4Name="Hệ thống thanh toán" c4Type="Hệ thống phần mêm" c4Description="Dịch vụ thanh toán bên thứ 3" label="&lt;font style=&quot;font-size: 16px&quot;&gt;&lt;b&gt;%c4Name%&lt;/b&gt;&lt;/font&gt;&lt;div&gt;[%c4Type%]&lt;/div&gt;&lt;br&gt;&lt;div&gt;&lt;font style=&quot;font-size: 11px&quot;&gt;&lt;font color=&quot;#cccccc&quot;&gt;%c4Description%&lt;/font&gt;&lt;/div&gt;" id="XcJCPWwcjopnrucdCZFC-21">
          <mxCell style="rounded=1;whiteSpace=wrap;html=1;labelBackgroundColor=none;fillColor=light-dark(#8c8496, #7d7787);fontColor=#ffffff;align=center;arcSize=0;strokeColor=#736782;metaEdit=1;resizable=1;points=[[0.25,0,0],[0.5,0,0],[0.75,0,0],[1,0.25,0],[1,0.5,0],[1,0.75,0],[0.75,1,0],[0.5,1,0],[0.25,1,0],[0,0.75,0],[0,0.5,0],[0,0.25,0]];movable=1;rotatable=1;deletable=1;editable=1;locked=0;connectable=1;" vertex="1" parent="1">
            <mxGeometry x="330" y="550" width="220" height="70" as="geometry" />
          </mxCell>
        </object>
        <mxCell id="XcJCPWwcjopnrucdCZFC-22" value="" style="endArrow=classic;html=1;rounded=0;exitX=0.5;exitY=1;exitDx=0;exitDy=0;exitPerimeter=0;entryX=0.5;entryY=0;entryDx=0;entryDy=0;" edge="1" parent="1" source="XcJCPWwcjopnrucdCZFC-1" target="XcJCPWwcjopnrucdCZFC-20">
          <mxGeometry width="50" height="50" relative="1" as="geometry">
            <mxPoint x="720" y="420" as="sourcePoint" />
            <mxPoint x="770" y="370" as="targetPoint" />
          </mxGeometry>
        </mxCell>
        <mxCell id="XcJCPWwcjopnrucdCZFC-23" value="Tìm kiếm sách, mượn sách online, &lt;br&gt;gia hạn, xem lịch sử mượn." style="text;html=1;align=center;verticalAlign=middle;resizable=1;points=[];autosize=1;strokeColor=none;fillColor=none;movable=1;rotatable=1;deletable=1;editable=1;locked=0;connectable=1;" vertex="1" parent="1">
          <mxGeometry x="830" y="320" width="210" height="40" as="geometry" />
        </mxCell>
        <mxCell id="XcJCPWwcjopnrucdCZFC-24" value="" style="endArrow=classic;html=1;rounded=0;exitX=0.5;exitY=0;exitDx=0;exitDy=0;exitPerimeter=0;entryX=0.5;entryY=1;entryDx=0;entryDy=0;" edge="1" parent="1" source="XcJCPWwcjopnrucdCZFC-4" target="XcJCPWwcjopnrucdCZFC-20">
          <mxGeometry width="50" height="50" relative="1" as="geometry">
            <mxPoint x="720" y="620" as="sourcePoint" />
            <mxPoint x="770" y="570" as="targetPoint" />
          </mxGeometry>
        </mxCell>
        <mxCell id="XcJCPWwcjopnrucdCZFC-25" value="Quản lý kho sách, xử lý yêu cầu mượn/trả," style="text;html=1;align=center;verticalAlign=middle;resizable=0;points=[];autosize=1;strokeColor=none;fillColor=none;" vertex="1" parent="1">
          <mxGeometry x="850" y="570" width="250" height="30" as="geometry" />
        </mxCell>
        <mxCell id="XcJCPWwcjopnrucdCZFC-26" value="" style="endArrow=classic;html=1;rounded=0;exitX=0;exitY=0.5;exitDx=0;exitDy=0;exitPerimeter=0;entryX=0.5;entryY=0;entryDx=0;entryDy=0;entryPerimeter=0;curved=1;" edge="1" parent="1" source="XcJCPWwcjopnrucdCZFC-1" target="XcJCPWwcjopnrucdCZFC-21">
          <mxGeometry width="50" height="50" relative="1" as="geometry">
            <mxPoint x="830" y="300" as="sourcePoint" />
            <mxPoint x="830" y="400" as="targetPoint" />
            <Array as="points">
              <mxPoint x="500" y="300" />
            </Array>
          </mxGeometry>
        </mxCell>
        <mxCell id="XcJCPWwcjopnrucdCZFC-27" value="Thanh toán" style="text;html=1;align=center;verticalAlign=middle;resizable=0;points=[];autosize=1;strokeColor=none;fillColor=none;" vertex="1" parent="1">
          <mxGeometry x="480" y="300" width="80" height="30" as="geometry" />
        </mxCell>
        <mxCell id="XcJCPWwcjopnrucdCZFC-28" value="" style="endArrow=classic;html=1;rounded=0;exitX=0.25;exitY=1;exitDx=0;exitDy=0;entryX=1;entryY=0.5;entryDx=0;entryDy=0;entryPerimeter=0;curved=1;" edge="1" parent="1" source="XcJCPWwcjopnrucdCZFC-20" target="XcJCPWwcjopnrucdCZFC-21">
          <mxGeometry width="50" height="50" relative="1" as="geometry">
            <mxPoint x="870" y="410" as="sourcePoint" />
            <mxPoint x="560" y="750" as="targetPoint" />
            <Array as="points">
              <mxPoint x="700" y="570" />
            </Array>
          </mxGeometry>
        </mxCell>
        <mxCell id="XcJCPWwcjopnrucdCZFC-29" value="" style="endArrow=classic;html=1;rounded=0;exitX=0.827;exitY=-0.014;exitDx=0;exitDy=0;entryX=0;entryY=0.5;entryDx=0;entryDy=0;exitPerimeter=0;curved=1;movable=1;resizable=1;rotatable=1;deletable=1;editable=1;locked=0;connectable=1;" edge="1" parent="1" source="XcJCPWwcjopnrucdCZFC-21" target="XcJCPWwcjopnrucdCZFC-20">
          <mxGeometry width="50" height="50" relative="1" as="geometry">
            <mxPoint x="840" y="560" as="sourcePoint" />
            <mxPoint x="610" y="655" as="targetPoint" />
            <Array as="points">
              <mxPoint x="600" y="430" />
            </Array>
          </mxGeometry>
        </mxCell>
        <mxCell id="XcJCPWwcjopnrucdCZFC-30" value="Trả lại thông tin&lt;br&gt;&amp;nbsp;thanh toán" style="text;html=1;align=center;verticalAlign=middle;resizable=1;points=[];autosize=1;strokeColor=none;fillColor=none;movable=1;rotatable=1;deletable=1;editable=1;locked=0;connectable=1;" vertex="1" parent="1">
          <mxGeometry x="520" y="420" width="110" height="40" as="geometry" />
        </mxCell>
        <mxCell id="XcJCPWwcjopnrucdCZFC-31" value="Uỷ quyền thanh toán" style="text;html=1;align=center;verticalAlign=middle;resizable=0;points=[];autosize=1;strokeColor=none;fillColor=none;" vertex="1" parent="1">
          <mxGeometry x="595" y="520" width="130" height="30" as="geometry" />
        </mxCell>
      </root>
    </mxGraphModel>
  </diagram>
</mxfile>
